<svg width="266" height="50" viewBox="0 0 266 50" fill="none" xmlns="http://www.w3.org/2000/svg">
<path d="M0.590881 49V2.45452H18.0455C21.6212 2.45452 24.6212 3.12119 27.0455 4.45452C29.4849 5.78786 31.3258 7.62119 32.5682 9.95452C33.8258 12.2727 34.4545 14.9091 34.4545 17.8636C34.4545 20.8485 33.8258 23.5 32.5682 25.8182C31.3106 28.1364 29.4545 29.9621 27 31.2955C24.5455 32.6136 21.5227 33.2727 17.9318 33.2727H14L9.02 26.3409H16.7955C18.8864 26.3409 20.5985 25.9773 21.9318 25.25C23.2652 24.5227 24.25 23.5227 24.8864 22.25C25.5379 20.9773 25.8636 19.5152 25.8636 17.8636C25.8636 16.2121 25.5379 14.7576 24.8864 13.5C24.25 12.2424 23.2576 11.2652 21.9091 10.5682C20.5758 9.85604 18.8561 9.49998 16.75 9.49998H9.0227V49H0.590881ZM49.642 2.45452V49H41.4148V2.45452H49.642ZM80.3523 34.3182V14.0909H88.5795V49H80.6023V42.7955H80.2386C79.4508 44.75 78.1553 46.3485 76.3523 47.5909C74.5644 48.8333 72.3598 49.4545 69.7386 49.4545C67.4508 49.4545 65.428 48.947 63.6705 47.9318C61.928 46.9015 60.5644 45.4091 59.5795 43.4545C58.5947 41.4848 58.1023 39.1061 58.1023 36.3182V14.0909H66.3295V35.0455C66.3295 37.2576 66.9356 39.0152 68.1477 40.3182C69.3598 41.6212 70.9508 42.2727 72.9205 42.2727C74.1326 42.2727 75.3068 41.9773 76.4432 41.3864C77.5795 40.7955 78.5114 39.9167 79.2386 38.75C79.9811 37.5682 80.3523 36.0909 80.3523 34.3182ZM124.631 23.3182L117.131 24.1364C116.919 23.3788 116.547 22.6667 116.017 22C115.502 21.3333 114.805 20.7955 113.926 20.3864C113.047 19.9773 111.972 19.7727 110.699 19.7727C108.987 19.7727 107.547 20.1439 106.381 20.8864C105.229 21.6288 104.661 22.5909 104.676 23.7727C104.661 24.7879 105.032 25.6136 105.79 26.25C106.563 26.8864 107.835 27.4091 109.608 27.8182L115.562 29.0909C118.866 29.803 121.32 30.9318 122.926 32.4773C124.547 34.0227 125.366 36.0455 125.381 38.5455C125.366 40.7424 124.722 42.6818 123.449 44.3636C122.191 46.0303 120.441 47.3333 118.199 48.2727C115.956 49.2121 113.381 49.6818 110.472 49.6818C106.199 49.6818 102.759 48.7879 100.153 47C97.5473 45.197 95.9943 42.6894 95.4943 39.4773L103.517 38.7045C103.881 40.2803 104.653 41.4697 105.835 42.2727C107.017 43.0758 108.555 43.4773 110.449 43.4773C112.403 43.4773 113.972 43.0758 115.153 42.2727C116.35 41.4697 116.949 40.4773 116.949 39.2955C116.949 38.2955 116.563 37.4697 115.79 36.8182C115.032 36.1667 113.85 35.6667 112.244 35.3182L106.29 34.0682C102.941 33.3712 100.464 32.197 98.858 30.5455C97.2519 28.8788 96.4564 26.7727 96.4716 24.2273C96.4564 22.0758 97.0398 20.2121 98.2216 18.6364C99.4186 17.0455 101.078 15.8182 103.199 14.9545C105.335 14.0758 107.797 13.6364 110.585 13.6364C114.676 13.6364 117.896 14.5076 120.244 16.25C122.608 17.9924 124.07 20.3485 124.631 23.3182ZM172.369 18.1591H163.869C163.627 16.7652 163.18 15.5303 162.528 14.4545C161.877 13.3636 161.066 12.4394 160.097 11.6818C159.127 10.9242 158.021 10.3561 156.778 9.97725C155.551 9.58331 154.225 9.38634 152.801 9.38634C150.271 9.38634 148.028 10.0227 146.074 11.2955C144.119 12.553 142.589 14.4015 141.483 16.8409C140.377 19.2652 139.824 22.2273 139.824 25.7273C139.824 29.2879 140.377 32.2879 141.483 34.7273C142.604 37.1515 144.134 38.9848 146.074 40.2273C148.028 41.4545 150.263 42.0682 152.778 42.0682C154.172 42.0682 155.475 41.8864 156.688 41.5227C157.915 41.1439 159.013 40.5909 159.983 39.8636C160.968 39.1364 161.794 38.2424 162.46 37.1818C163.142 36.1212 163.612 34.9091 163.869 33.5455L172.369 33.5909C172.051 35.803 171.362 37.8788 170.301 39.8182C169.256 41.7576 167.884 43.4697 166.188 44.9545C164.491 46.4242 162.506 47.5758 160.233 48.4091C157.96 49.2273 155.438 49.6364 152.665 49.6364C148.574 49.6364 144.922 48.6894 141.71 46.7955C138.498 44.9015 135.968 42.1667 134.119 38.5909C132.271 35.0152 131.347 30.7273 131.347 25.7273C131.347 20.7121 132.278 16.4242 134.142 12.8636C136.006 9.28786 138.544 6.55301 141.756 4.65907C144.968 2.76513 148.604 1.81816 152.665 1.81816C155.256 1.81816 157.665 2.1818 159.892 2.90907C162.119 3.63634 164.104 4.70453 165.847 6.11362C167.589 7.50755 169.021 9.21968 170.142 11.25C171.278 13.2652 172.021 15.5682 172.369 18.1591ZM194.955 49.6818C191.545 49.6818 188.591 48.9318 186.091 47.4318C183.591 45.9318 181.652 43.8333 180.273 41.1364C178.909 38.4394 178.227 35.2879 178.227 31.6818C178.227 28.0758 178.909 24.9167 180.273 22.2045C181.652 19.4924 183.591 17.3864 186.091 15.8864C188.591 14.3864 191.545 13.6364 194.955 13.6364C198.364 13.6364 201.318 14.3864 203.818 15.8864C206.318 17.3864 208.25 19.4924 209.614 22.2045C210.992 24.9167 211.682 28.0758 211.682 31.6818C211.682 35.2879 210.992 38.4394 209.614 41.1364C208.25 43.8333 206.318 45.9318 203.818 47.4318C201.318 48.9318 198.364 49.6818 194.955 49.6818ZM195 43.0909C196.848 43.0909 198.394 42.5833 199.636 41.5682C200.879 40.5379 201.803 39.1591 202.409 37.4318C203.03 35.7045 203.341 33.7803 203.341 31.6591C203.341 29.5227 203.03 27.5909 202.409 25.8636C201.803 24.1212 200.879 22.7348 199.636 21.7045C198.394 20.6742 196.848 20.1591 195 20.1591C193.106 20.1591 191.53 20.6742 190.273 21.7045C189.03 22.7348 188.098 24.1212 187.477 25.8636C186.871 27.5909 186.568 29.5227 186.568 31.6591C186.568 33.7803 186.871 35.7045 187.477 37.4318C188.098 39.1591 189.03 40.5379 190.273 41.5682C191.53 42.5833 193.106 43.0909 195 43.0909ZM218.665 49V14.0909L226.892 19V49H218.665ZM222.801 9.13634C221.498 9.13634 220.377 8.70453 219.438 7.84089C218.498 6.9621 218.028 5.90907 218.028 4.6818C218.028 3.43937 218.498 2.38634 219.438 1.5227C220.377 0.643922 221.498 0.204529 222.801 0.204529C224.119 0.204529 225.241 0.643922 226.165 1.5227C227.104 2.38634 227.574 3.43937 227.574 4.6818C227.574 5.90907 227.104 6.9621 226.165 7.84089C225.241 8.70453 224.119 9.13634 222.801 9.13634ZM243.58 28.5455V49H235.352V14.0909H243.216V20.0227H243.625C244.428 18.0682 245.708 16.5152 247.466 15.3636C249.239 14.2121 251.428 13.6364 254.034 13.6364C256.443 13.6364 258.542 14.1515 260.33 15.1818C262.133 16.2121 263.527 17.7045 264.511 19.6591C265.511 21.6136 266.004 23.9848 265.989 26.7727V49H257.761V28.0455C257.761 25.7121 257.155 23.8864 255.943 22.5682C254.746 21.25 253.087 20.5909 250.966 20.5909C249.527 20.5909 248.246 20.9091 247.125 21.5455C246.019 22.1667 245.148 23.0682 244.511 24.25C243.89 25.4318 243.58 26.8636 243.58 28.5455Z" fill="currentColor"/>
</svg>
