<svg width="354" height="354" viewBox="0 0 354 354" fill="none" xmlns="http://www.w3.org/2000/svg">
<path d="M35.5786 212.355C16.0524 192.829 16.0524 161.171 35.5786 141.645L141.645 35.5786C161.171 16.0524 192.829 16.0524 212.355 35.5786L318.421 141.645C337.948 161.171 337.948 192.829 318.421 212.355L212.355 318.421C192.829 337.948 161.171 337.948 141.645 318.421L35.5786 212.355Z" fill="#2563EB"/>
<path d="M72.2031 278.329C45.5298 271.182 29.7007 243.765 36.8478 217.092L75.6707 72.2032C82.8178 45.5299 110.235 29.7007 136.908 36.8478L281.797 75.6707C308.47 82.8178 324.299 110.235 317.152 136.908L278.329 281.797C271.182 308.47 243.765 324.299 217.092 317.152L72.2031 278.329Z" fill="#3B82F6"/>
<rect x="168.081" y="116" width="17.8378" height="120" fill="#EFF6FF"/>
<rect x="117" y="184.919" width="17.8378" height="120" transform="rotate(-90 117 184.919)" fill="#EFF6FF"/>
</svg>
