<svg 
 width="924px" height="382px">
<path fill-rule="evenodd"  opacity="0.851" fill="rgb(255, 255, 255)"
 d="M923.343,190.705 L923.343,268.205 L558.968,268.205 L558.968,190.705 L610.843,190.705 L610.843,81.330 L558.968,81.330 L558.968,0.080 L923.343,0.080 L923.343,81.330 L871.468,81.330 L871.468,190.705 L923.343,190.705 ZM786.468,81.330 L695.843,81.330 L695.843,190.705 L786.468,190.705 L786.468,81.330 ZM0.968,190.705 L52.843,190.705 L52.843,81.330 L0.968,81.330 L0.968,0.080 L365.343,0.080 L365.343,81.330 L313.468,81.330 L313.468,190.705 L365.343,190.705 L365.343,268.205 L0.968,268.205 L0.968,190.705 ZM137.843,190.705 L228.468,190.705 L228.468,81.330 L137.843,81.330 L137.843,190.705 Z"/>
<path fill-rule="evenodd"  fill="rgb(255, 255, 255)"
 d="M320.593,381.455 L252.468,320.205 L461.843,67.080 L671.218,320.205 L603.093,381.455 L461.843,210.205 L320.593,381.455 Z"/>
</svg>